<svg version="1.1" viewBox="0.0 0.0 702.2230971128608 512.2230971128608" fill="none" stroke="none" stroke-linecap="square" stroke-miterlimit="10" xmlns:xlink="http://www.w3.org/1999/xlink" xmlns="http://www.w3.org/2000/svg"><clipPath id="p.0"><path d="m0 0l702.2231 0l0 512.2231l-702.2231 0l0 -512.2231z" clip-rule="nonzero"/></clipPath><g clip-path="url(#p.0)"><path fill="#000000" fill-opacity="0.0" d="m0 0l702.2231 0l0 512.2231l-702.2231 0z" fill-rule="evenodd"/><path fill="#000000" fill-opacity="0.0" d="m293.9449 336.43832l66.92914 0l0 97.19684l-66.92914 0z" fill-rule="evenodd"/><path stroke="#ffffff" stroke-width="4.0" stroke-linejoin="round" stroke-linecap="butt" d="m293.9449 336.43832l66.92914 0l0 97.19684l-66.92914 0z" fill-rule="evenodd"/><path fill="#000000" fill-opacity="0.0" d="m293.9449 493.5958l67.52231 0l-13.504456 -40.74539l-40.513397 0z" fill-rule="evenodd"/><path stroke="#ffffff" stroke-width="4.0" stroke-linejoin="round" stroke-linecap="butt" d="m293.9449 493.5958l67.52231 0l-13.504456 -40.74539l-40.513397 0z" fill-rule="evenodd"/><path fill="#000000" fill-opacity="0.0" d="m293.9449 433.63516l66.92914 0l-13.385834 19.21524l-40.15747 0z" fill-rule="evenodd"/><path stroke="#ffffff" stroke-width="4.0" stroke-linejoin="round" stroke-linecap="butt" d="m293.9449 433.63516l66.92914 0l-13.385834 19.21524l-40.15747 0z" fill-rule="evenodd"/><path fill="#000000" fill-opacity="0.0" d="m460.03412 13.089239l72.09448 0l0 131.87402l-72.09448 0z" fill-rule="evenodd"/><path stroke="#ffffff" stroke-width="4.0" stroke-linejoin="round" stroke-linecap="butt" d="m460.03412 13.089239l72.09448 0l0 131.87402l-72.09448 0z" fill-rule="evenodd"/><path fill="#000000" fill-opacity="0.0" d="m327.40945 336.43832l0 -95.73804l168.6614 0l0 -95.72653" fill-rule="evenodd"/><path stroke="#ffffff" stroke-width="4.0" stroke-linejoin="round" stroke-linecap="butt" d="m327.40945 336.43832l0 -95.73804l168.6614 0l0 -95.72653" fill-rule="evenodd"/><path fill="#000000" fill-opacity="0.0" d="m128.53806 13.089239l72.0945 0l0 131.87402l-72.0945 0z" fill-rule="evenodd"/><path stroke="#ffffff" stroke-width="4.0" stroke-linejoin="round" stroke-linecap="butt" d="m128.53806 13.089239l72.0945 0l0 131.87402l-72.0945 0z" fill-rule="evenodd"/><path fill="#000000" fill-opacity="0.0" d="m327.40945 336.43832l0 -95.73804l-162.83466 0l0 -95.72653" fill-rule="evenodd"/><path stroke="#ffffff" stroke-width="4.0" stroke-linejoin="round" stroke-linecap="butt" d="m327.40945 336.43832l0 -95.73804l-162.83466 0l0 -95.72653" fill-rule="evenodd"/><path fill="#03fbad" fill-opacity="0.17" d="m-54.489502 94.51181l0 50.451447l-36.043304 -25.225723l-36.043312 25.225723l0 -50.451447l36.043312 25.225723z" fill-rule="evenodd"/><path stroke="#03fbad" stroke-width="4.0" stroke-linejoin="round" stroke-linecap="butt" d="m-54.489502 94.51181l0 50.451447l-36.043304 -25.225723l-36.043312 25.225723l0 -50.451447l36.043312 25.225723z" fill-rule="evenodd"/><path fill="#03fbad" fill-opacity="0.17" d="m-54.489502 158.24147l0 50.451447l-36.043304 -25.225723l-36.043312 25.225723l0 -50.451447l36.043312 25.225723z" fill-rule="evenodd"/><path stroke="#03fbad" stroke-width="4.0" stroke-linejoin="round" stroke-linecap="butt" d="m-54.489502 158.24147l0 50.451447l-36.043304 -25.225723l-36.043312 25.225723l0 -50.451447l36.043312 25.225723z" fill-rule="evenodd"/><path fill="#000000" fill-opacity="0.0" d="m360.87402 385.03674l48.31494 0" fill-rule="evenodd"/><path stroke="#ffffff" stroke-width="3.0" stroke-linejoin="round" stroke-linecap="butt" d="m360.87402 385.03674l48.31494 0" fill-rule="evenodd"/><path fill="#000000" fill-opacity="0.0" d="m409.18765 385.03674l18.897644 -18.897644l18.897644 18.897644l-18.897644 18.897644z" fill-rule="evenodd"/><path stroke="#ffffff" stroke-width="3.0" stroke-linejoin="round" stroke-linecap="butt" d="m409.18765 385.03674l18.897644 -18.897644l18.897644 18.897644l-18.897644 18.897644z" fill-rule="evenodd"/><path fill="#000000" fill-opacity="0.0" d="m403.92783 364.02887l48.31494 0l0 42.015747l-48.31494 0z" fill-rule="evenodd"/><path fill="#ffffff" d="m423.2229 390.94888l0 -13.359375l4.328125 0q2.453125 0 3.203125 0.203125q1.140625 0.296875 1.921875 1.3125q0.78125 1.0 0.78125 2.59375q0 1.234375 -0.453125 2.078125q-0.453125 0.828125 -1.140625 1.3125q-0.6875 0.46875 -1.390625 0.625q-0.96875 0.203125 -2.796875 0.203125l-1.765625 0l0 5.03125l-2.6875 0zm2.6875 -11.09375l0 3.78125l1.484375 0q1.59375 0 2.125 -0.203125q0.546875 -0.203125 0.84375 -0.65625q0.3125 -0.453125 0.3125 -1.03125q0 -0.734375 -0.4375 -1.203125q-0.421875 -0.484375 -1.078125 -0.59375q-0.484375 -0.09375 -1.9375 -0.09375l-1.3125 0z" fill-rule="nonzero"/></g></svg>